HIERARCHY
ROOT hip
{
  OFFSET 0 0 0
  CHANNELS 6 Xposition Yposition Zposition Zrotation Yrotation Xrotation
  JOINT abdomen
  {
    OFFSET 0 20.6881 -0.73152
    CHANNELS 3 Zrotation Xrotation Yrotation
    JOINT chest
    {
      OFFSET 0 11.7043 -0.48768
      CHANNELS 3 Zrotation Xrotation Yrotation
      JOINT neck
      {
        OFFSET 0 22.1894 -2.19456
        CHANNELS 3 Zrotation Xrotation Yrotation
        JOINT head
        {
          OFFSET -0.24384 7.07133 1.2192
          CHANNELS 3 Zrotation Xrotation Yrotation
          JOINT leftEye
          {
            OFFSET 4.14528 8.04674 8.04672
            CHANNELS 3 Zrotation Xrotation Yrotation
            End Site
            {
              OFFSET 1 0 0
            }
          }
          JOINT rightEye
          {
            OFFSET -3.6576 8.04674 8.04672
            CHANNELS 3 Zrotation Xrotation Yrotation
            End Site
            {
              OFFSET 1 0 0
            }
          }
        }
      }
      JOINT rCollar
      {
        OFFSET -2.68224 19.2634 -4.8768
        CHANNELS 3 Zrotation Xrotation Yrotation
        JOINT rShldr
        {
          OFFSET -8.77824 -1.95073 1.46304
          CHANNELS 3 Zrotation Xrotation Yrotation
          JOINT rForeArm
          {
            OFFSET -28.1742 -1.7115 0.48768
            CHANNELS 3 Zrotation Xrotation Yrotation
            JOINT rHand
            {
              OFFSET -22.5879 0.773209 7.07136
              CHANNELS 3 Zrotation Xrotation Yrotation
              JOINT rThumb1
              {
                OFFSET -1.2192 -0.487915 3.41376
                CHANNELS 3 Zrotation Xrotation Yrotation
                JOINT rThumb2
                {
                  OFFSET -3.37035 -0.52449 3.41376
                  CHANNELS 3 Zrotation Xrotation Yrotation
                  End Site
                  {
                    OFFSET -1.78271 -1.18214 1.43049
                  }
                }
              }
              JOINT rIndex1
              {
                OFFSET -7.75947 0.938293 5.60832
                CHANNELS 3 Zrotation Xrotation Yrotation
                JOINT rIndex2
                {
                  OFFSET -2.54057 -0.884171 1.56538
                  CHANNELS 3 Zrotation Xrotation Yrotation
                  End Site
                  {
                    OFFSET -1.62519 -0.234802 1.16502
                  }
                }
              }
              JOINT rMid1
              {
                OFFSET -8.24714 1.18213 3.41376
                CHANNELS 3 Zrotation Xrotation Yrotation
                JOINT rMid2
                {
                  OFFSET -3.10165 -0.590103 1.0647
                  CHANNELS 3 Zrotation Xrotation Yrotation
                  End Site
                  {
                    OFFSET -2.48547 -0.328903 0.83742
                  }
                }
              }
              JOINT rRing1
              {
                OFFSET -8.82822 0.546677 1.51678
                CHANNELS 3 Zrotation Xrotation Yrotation
                JOINT rRing2
                {
                  OFFSET -2.60934 -0.819778 -0.0198488
                  CHANNELS 3 Zrotation Xrotation Yrotation
                  End Site
                  {
                    OFFSET -2.33842 -0.294052 0.168128
                  }
                }
              }
              JOINT rPinky1
              {
                OFFSET -8.27202 -0.0477905 -0.4584
                CHANNELS 3 Zrotation Xrotation Yrotation
                JOINT rPinky2
                {
                  OFFSET -1.82734 -0.647385 -0.700984
                  CHANNELS 3 Zrotation Xrotation Yrotation
                  End Site
                  {
                    OFFSET -1.69225 -0.51767 -0.607171
                  }
                }
              }
            }
          }
        }
      }
      JOINT lCollar
      {
        OFFSET 2.68224 19.2634 -4.8768
        CHANNELS 3 Zrotation Xrotation Yrotation
        JOINT lShldr
        {
          OFFSET 8.77824 -1.95073 1.46304
          CHANNELS 3 Zrotation Xrotation Yrotation
          JOINT lForeArm
          {
            OFFSET 28.1742 -1.7115 0.48768
            CHANNELS 3 Zrotation Xrotation Yrotation
            JOINT lHand
            {
              OFFSET 22.5879 0.773209 7.07136
              CHANNELS 3 Zrotation Xrotation Yrotation
              JOINT lThumb1
              {
                OFFSET 1.2192 -0.487915 3.41376
                CHANNELS 3 Zrotation Xrotation Yrotation
                JOINT lThumb2
                {
                  OFFSET 3.37035 -0.52449 3.41376
                  CHANNELS 3 Zrotation Xrotation Yrotation
                  End Site
                  {
                    OFFSET 1.78271 -1.18214 1.43049
                  }
                }
              }
              JOINT lIndex1
              {
                OFFSET 7.75947 0.938293 5.60832
                CHANNELS 3 Zrotation Xrotation Yrotation
                JOINT lIndex2
                {
                  OFFSET 2.54057 -0.884171 1.56538
                  CHANNELS 3 Zrotation Xrotation Yrotation
                  End Site
                  {
                    OFFSET 1.62519 -0.234802 1.16502
                  }
                }
              }
              JOINT lMid1
              {
                OFFSET 8.24714 1.18213 3.41376
                CHANNELS 3 Zrotation Xrotation Yrotation
                JOINT lMid2
                {
                  OFFSET 3.10165 -0.590103 1.0647
                  CHANNELS 3 Zrotation Xrotation Yrotation
                  End Site
                  {
                    OFFSET 2.48547 -0.328903 0.83742
                  }
                }
              }
              JOINT lRing1
              {
                OFFSET 8.82822 0.546677 1.51678
                CHANNELS 3 Zrotation Xrotation Yrotation
                JOINT lRing2
                {
                  OFFSET 2.60934 -0.819778 -0.0198488
                  CHANNELS 3 Zrotation Xrotation Yrotation
                  End Site
                  {
                    OFFSET 2.33842 -0.294052 0.168128
                  }
                }
              }
              JOINT lPinky1
              {
                OFFSET 8.27202 -0.0477905 -0.4584
                CHANNELS 3 Zrotation Xrotation Yrotation
                JOINT lPinky2
                {
                  OFFSET 1.82734 -0.647385 -0.700984
                  CHANNELS 3 Zrotation Xrotation Yrotation
                  End Site
                  {
                    OFFSET 1.69225 -0.51767 -0.607171
                  }
                }
              }
            }
          }
        }
      }
    }
  }
  JOINT rButtock
  {
    OFFSET -8.77824 4.35084 1.2192
    CHANNELS 3 Zrotation Xrotation Yrotation
    JOINT rThigh
    {
      OFFSET 0 -1.70687 -2.19456
      CHANNELS 3 Zrotation Xrotation Yrotation
      JOINT rShin
      {
        OFFSET 0 -36.8199 0.73152
        CHANNELS 3 Zrotation Xrotation Yrotation
        JOINT rFoot
        {
          OFFSET 0.73152 -45.1104 -5.12064
          CHANNELS 3 Zrotation Xrotation Yrotation
          End Site
          {
            OFFSET -1.1221 -3.69964 12.103
          }
        }
      }
    }
  }
  JOINT lButtock
  {
    OFFSET 8.77824 4.35084 1.2192
    CHANNELS 3 Zrotation Xrotation Yrotation
    JOINT lThigh
    {
      OFFSET 0 -1.70687 -2.19456
      CHANNELS 3 Zrotation Xrotation Yrotation
      JOINT lShin
      {
        OFFSET 0 -36.8199 0.73152
        CHANNELS 3 Zrotation Xrotation Yrotation
        JOINT lFoot
        {
          OFFSET -0.73152 -45.1104 -5.12064
          CHANNELS 3 Zrotation Xrotation Yrotation
          End Site
          {
            OFFSET 1.1221 -3.69964 12.103
          }
        }
      }
    }
  }
}
MOTION
Frames:	8
Frame Time:	0.00833333
-0.26775786 0.23544766 -1.295893 6.143565 17.047802 11.950876 -5.54684 8.694699 -10.952313 7.1690164 -9.3374 -2.5602393 -3.3082175 11.140141 -2.4325435 0.9893747 -27.408316 -4.310873 0.15142001 -0.29804963 0.24246433 -0.2599859 0.34601215 0.20358744 -0.07277641 -0.090194136 -0.02774388 55.089638 37.507492 13.512496 -22.561508 -51.061752 107.75552 -5.463873 -50.952633 -11.685849 0.25768572 0.26481953 0.25395614 -0.06907095 0.046660863 0.30147418 -0.352487 0.0030771468 0.19468834 7.5525274 5.4288373 0.013238293 -0.03193978 0.5675843 -0.09700192 3.0844731 1.2317804 0.3332938 0.0289862 -0.30775753 0.071564585 10.35896 0.91264224 0.22794859 0.39453977 -0.38136646 0.06961744 2.5951385 -0.95422596 0.13819222 0.54557973 -0.1253229 -0.33214077 -20.375185 18.694687 -74.43485 23.423866 -20.03258 -50.8946 -0.9719155 12.190723 -0.97961044 -0.33827546 -0.19372739 -0.19517073 -0.1712322 -0.14604251 -0.06812324 0.008794402 0.16733162 -0.3749311 -7.285705 5.6558633 -0.52860165 -0.2588773 0.32119986 0.03164213 -2.9949355 0.95143944 -0.19629547 0.23267348 0.023952724 0.4087785 -10.025788 0.6417584 -0.0776173 -0.1357329 0.04609225 0.3254801 -2.168614 -0.99412274 0.110164866 0.34618002 -0.5650758 -0.14722237 -60.911583 -54.307888 -66.388885 -4.894609 78.554886 5.62206 -3.7676013 -8.317295 -13.6840105 0.20986484 -0.741262 -0.29781303 11.011409 7.3420234 4.886401 0.25936222 50.262955 -3.0986936 2.930708 -9.184091 25.377485
-0.83328116 0.24639238 -2.4733686 7.3590155 18.563805 12.095755 -6.1635637 7.3985186 -10.526049 7.0390778 -9.550616 -2.3171642 -4.224825 11.866991 -3.2195828 1.6010848 -27.426968 -6.370965 0.060050447 -0.35018966 0.058299825 -0.19437674 0.27010933 0.22347994 -0.19959609 0.0469695 -0.10799145 48.465183 30.518099 22.614273 -22.744282 -50.78617 107.839966 -4.500354 -48.40777 -10.523975 0.37166682 0.2502916 0.34928775 -0.2078409 -0.015878908 0.30359197 -0.2844845 0.17856438 0.15610418 7.591468 5.4679327 0.0017973002 -0.08309106 0.47768834 -0.14547966 3.1207473 1.1733974 0.21091986 -0.04292336 -0.36407474 -0.04600543 10.388496 0.971378 0.2735815 0.41562226 -0.3422928 -0.02113015 2.5689776 -0.83121616 0.04397724 0.5787789 0.07016533 -0.7507647 -19.166203 26.518904 -75.5386 25.614943 -24.136059 -58.27395 -0.32041055 8.019148 -0.7481654 0.014331337 0.06549172 -0.29402587 -0.21685913 0.06610838 0.09899505 0.13640143 -0.13406338 -0.3344935 -7.3200345 5.6720505 -0.22198583 -0.19977014 0.39126796 0.21710956 -3.2213886 0.9326118 -0.15247585 0.26408616 0.09795996 0.20824979 -10.171853 0.75118977 0.20807369 -0.01725271 0.013247845 0.2994413 -2.213119 -1.074383 0.12182143 0.19518363 -0.6401033 -0.14723347 -64.022026 -52.684868 -68.8343 -4.618989 77.88973 5.1692824 -3.6504745 -6.928404 -14.491981 0.047588833 -0.68134356 -0.36633345 11.986938 9.3968525 4.54853 -0.52149826 41.688427 -1.710182 1.3234745 -6.3365736 22.935602
-1.5273345 0.39965308 -3.4392424 8.554432 19.51971 13.033517 -6.8756757 6.6648736 -9.350026 6.5318594 -9.908906 -2.0171828 -4.8666997 12.718557 -3.7541058 1.6602067 -26.960243 -8.314802 -0.091925524 -0.44548413 -0.25906318 0.019380715 0.29480535 0.0429621 0.026753796 0.1199363 0.08053339 43.153793 22.022104 31.522028 -23.929926 -48.689293 103.022255 -3.9102063 -46.91584 -10.019786 0.32508013 0.24033628 0.48263428 -0.41373387 -0.011012399 0.10434931 -0.22903544 0.24887821 0.08261433 7.5080876 5.7485957 0.09211043 -0.00166774 0.27444175 0.08676239 3.1113398 1.0803329 -0.11384964 -0.031242779 -0.52044564 -0.42511085 10.399287 1.0767504 0.1763131 0.24308583 -0.054768294 0.066647485 2.3629017 -0.6082972 -0.25776064 0.29520136 0.30249953 -0.792069 -18.217363 36.413105 -75.43117 27.479202 -28.491014 -65.87387 -0.042581853 -0.9006554 0.5358307 0.16762255 0.09680152 -0.21070215 -0.23885117 0.2967285 0.21759957 0.38253093 -0.3481977 -0.018133724 -7.5412483 5.5927677 -0.30651373 -0.018877918 0.40262425 0.41628838 -3.427985 0.7247743 -0.28519145 0.27533206 0.0007250672 0.14025553 -10.3273535 0.9738308 0.29261863 -0.008880286 -0.04105509 0.23868741 -2.1914833 -0.954929 0.0638073 -0.073376134 -0.5678081 -0.06383324 -66.79819 -52.165447 -69.777405 -5.0090966 77.29118 4.649493 -3.7059793 -5.514808 -14.705926 -0.1814242 -0.42510357 -0.46574432 11.623828 11.235764 3.9752724 -1.1573914 34.22313 -1.5763963 0.24036734 -4.1771307 21.53957
-2.1493087 0.677827 -4.2451644 9.990102 19.63246 13.874316 -7.9275217 6.220946 -8.100364 5.8703713 -10.204798 -1.7246877 -5.2469106 13.385799 -4.1425247 1.3032926 -25.801563 -9.919992 -0.16005506 -0.4813186 -0.42060408 0.16636953 0.40187263 -0.10098029 0.35103863 0.08613967 0.3268314 40.1508 12.799837 39.26742 -25.702507 -44.438877 93.438034 -3.801917 -45.223915 -9.4967165 0.2237099 0.16921233 0.6012358 -0.525975 0.072657414 -0.18185073 -0.21683298 0.13927495 -0.021356292 7.387066 5.825229 0.29283026 0.073459536 0.066895135 0.4111586 3.125839 1.1030517 -0.3947009 0.032882128 -0.71898985 -0.82811034 10.378784 1.2433692 -0.089491054 -0.045295946 0.2729845 0.1857266 2.1950073 -0.42654106 -0.53279316 -0.15230323 0.533431 -0.37528452 -19.380024 47.63192 -72.8472 28.61205 -32.828983 -72.86801 0.28981206 -12.51842 1.9885753 0.13992026 -0.02879178 0.030120812 -0.15882355 0.3646281 0.2173144 0.64803815 -0.31885868 0.3574178 -7.8433447 5.509348 -0.6933024 0.24555315 0.34947056 0.46582583 -3.4733756 0.58377296 -0.42740974 0.16006953 -0.15710758 0.18349014 -10.506115 1.1335815 0.27501926 -0.05867759 -0.054307044 0.1054103 -2.1920326 -0.83678424 -0.039887767 -0.30614722 -0.39569545 -0.07756426 -70.6125 -52.308342 -70.80258 -5.7219915 77.24308 4.2049017 -3.6122315 -3.7441506 -14.396938 -0.3884832 -0.30676556 -0.5388789 9.822777 13.266354 3.800726 -1.3814988 28.504822 -2.0274322 -0.26896277 -3.430869 21.1531
-2.7029216 0.9752609 -4.980626 12.873779 19.428764 14.848912 -9.082709 5.593072 -7.125875 5.2121205 -10.197828 -1.6672742 -5.687592 13.46258 -4.7172666 0.84803355 -24.620266 -10.90833 -0.18500552 -0.3780091 -0.28570083 0.043666996 0.26014024 -0.1459416 0.20188192 -0.10463092 0.51808923 38.3189 4.4357076 47.340183 -27.56842 -38.184452 80.85768 -3.236717 -42.454464 -8.467638 0.26038033 -0.05716828 0.50670123 -0.44004098 0.21806167 -0.34589526 -0.2157838 -0.1338652 -0.049085792 7.4149375 5.4975543 0.44867906 -0.053033963 -0.09292562 0.3732283 3.189012 1.1504251 -0.38939857 0.27545527 -0.64606047 -0.8651638 10.263207 1.3549814 -0.35965672 -0.3178541 0.32143104 0.1668376 2.2202814 -0.5119355 -0.665273 -0.32206118 0.6964786 0.16923073 -27.874819 59.33557 -62.57038 28.77899 -36.560062 -78.42019 0.6821027 -23.166525 3.468374 0.115181744 -0.18531132 0.31026292 -0.12845717 0.26233155 0.10983883 0.82772505 -0.21867955 0.49192888 -7.948159 5.4404716 -0.86356866 0.25907388 0.2548249 0.28065625 -3.3557463 0.77099526 -0.44504794 0.036149736 -0.16116503 0.12275402 -10.693123 1.1188816 0.4578632 -0.06634853 0.15629008 -0.015776189 -2.0734994 -0.87393665 0.0046145394 -0.28251413 -0.29098567 -0.4683429 -75.04384 -52.875366 -72.26662 -5.002832 77.438835 3.9779823 -3.4046013 -1.6772118 -14.765463 -0.39473653 -0.42393637 -0.6033101 6.954359 15.220372 3.9494042 -1.2259413 24.181395 -2.1802194 -0.18090369 -4.4671264 21.813845
-3.1228824 0.9463629 -5.803508 14.942658 19.754475 16.03783 -9.841717 5.432866 -6.281632 4.753967 -10.176337 -1.8420093 -6.060896 12.876788 -5.298636 0.74622077 -24.603745 -11.461837 -0.11150813 -0.25642717 -0.025690582 -0.25559226 -0.08822021 -0.23796345 -0.35881218 -0.28424504 0.7182189 36.837894 -2.5168157 55.2119 -28.331852 -30.712334 66.511566 -1.3132179 -34.856277 -6.710153 0.32489827 -0.3848978 0.24798687 -0.19315739 0.30967757 -0.14347564 -0.08323482 -0.3211061 0.026864199 7.393624 5.2260003 0.21978576 -0.24114494 -0.3204536 0.035770766 3.2522914 1.1726327 -0.14676091 0.63001955 -0.1743816 -0.40612954 10.147011 1.2265557 -0.44791237 -0.51625955 0.010544637 0.06898256 2.4393067 -0.848684 -0.58474076 -0.16596383 0.66840214 0.48198915 -49.710007 69.67061 -37.569965 28.1693 -38.472317 -81.535965 2.0946584 -31.794672 5.1898713 0.21188623 -0.36938897 0.49338722 -0.31432348 0.023793923 -0.15883988 0.68762726 -0.19013469 0.30251077 -7.9117174 5.5386553 -0.5549827 -0.062285878 0.14793368 0.16644114 -3.1742332 1.1481962 -0.46959022 -0.15612467 0.023817722 0.002093026 -10.623353 1.1242032 0.68978 -0.18527088 0.43158075 -0.16933782 -1.9374019 -0.86880565 0.16367577 0.013074475 -0.29829034 -0.94029695 -79.04557 -54.805744 -72.85031 -3.520045 77.27753 3.782439 -2.9309502 0.2563536 -15.479733 -0.19914949 -0.29584172 -0.5304239 4.321671 16.632664 4.49518 -0.99674577 20.35668 -1.8177687 0.7866042 -6.7791457 24.255156
-3.0934267 0.37340692 -6.436222 14.528778 19.478725 17.067575 -10.7705965 5.918241 -4.6219897 4.4247174 -10.689872 -1.4656273 -6.2259703 12.530737 -6.1973 0.89284813 -25.572582 -12.604724 0.054834556 -0.17748405 0.026911158 -0.49909487 -0.1806903 -0.18751654 -0.4731093 -0.27374542 0.8957799 37.04833 -8.350222 61.654278 -25.6525 -21.528881 50.167656 0.33676502 -14.111147 -3.239635 -0.13418794 -0.56853944 -0.080291644 0.11924819 0.46530446 0.28681296 -0.011066933 -0.35343793 -0.23345116 7.488046 5.271958 -0.17608878 -0.03751556 -0.45710543 0.009314776 3.281878 1.0399159 0.11871861 0.6427174 0.36344787 -0.08877687 10.272784 0.9750159 -0.41754726 -0.52635896 -0.36354 -0.16627839 2.6094732 -1.0347283 -0.41324946 -0.18771818 0.39441222 0.22758381 -84.334984 72.58043 2.4261723 27.830658 -39.040375 -82.1164 4.045248 -40.128727 7.8948145 0.39499056 -0.3628527 0.08919544 -0.37872607 -0.03131124 -0.5110192 0.28354153 -0.2371496 -0.16262381 -7.958276 5.7499814 -0.27422982 -0.38968074 0.04960334 0.059077825 -3.1484773 0.96559715 -0.4746055 -0.6074302 0.16813268 0.114551336 -9.968797 1.3276333 0.24070759 -0.37150022 0.32939953 -0.40097278 -2.194651 -0.68118507 0.04812711 -0.0024973413 -0.47542128 -0.9436052 -82.16259 -57.322994 -72.143394 -3.8436067 76.139305 3.195925 -2.2778816 1.7961612 -14.201577 0.15508075 0.22987747 -0.16235684 2.6911793 17.089422 6.182232 -0.26426694 16.392473 -1.3578695 1.9872831 -8.35573 27.808943
-2.7774446 0.21041371 -6.3846054 13.685435 18.67591 16.288109 -13.205999 5.7279696 -2.0529912 3.9549232 -11.818232 -0.5416898 -6.6827383 12.764123 -7.8993397 1.3245641 -26.214722 -14.539894 0.19422726 -0.31633207 0.21753319 -0.052077416 0.012554954 -0.068871565 -0.30983418 -0.030988887 0.84821135 37.714912 -15.992376 67.46886 -18.068567 -11.825527 34.234615 -0.68708134 14.832583 1.7280394 -0.4825555 -0.22276995 -0.11708416 0.30763254 0.463868 -0.12242465 -0.14039037 0.22115813 -0.53701293 7.7738614 5.0275755 0.17665996 0.30090973 -0.30325958 0.012795718 3.3357825 1.065866 0.12165094 0.07889193 0.32252786 -0.061917264 10.247479 0.66952586 -0.49834073 -0.19897883 -0.08235682 -0.4615958 2.3139305 -0.86178106 -0.48749512 -0.36472553 0.025675347 -0.2515055 -107.48495 67.19446 30.732649 28.046398 -39.073288 -82.00695 5.185514 -48.006245 10.16762 0.37678114 -0.2545848 -0.22878304 -0.06093585 0.3862034 -0.39336616 0.010925421 0.07412495 -0.22141908 -8.133376 5.9118576 -0.3245058 -0.3899524 0.024975812 -0.029202579 -3.228754 0.44561103 -0.33141956 -0.53515637 -0.20006135 0.5248732 -9.957252 0.9305889 -0.46802044 -0.29807356 0.22116786 -0.49554232 -2.499829 -1.0372424 0.17409031 -0.69181913 -0.14358391 -0.5371108 -84.83023 -57.454422 -73.54753 -4.769655 77.021965 2.9540555 -1.9384121 1.9274895 -11.048467 0.4341755 0.19990885 0.04359256 1.105562 16.549408 7.9915547 -0.47714835 15.403894 -1.3187121 2.0077033 -8.660902 30.734194
